<svg
  class="img-fluid"
  id="outputsvg"
  xmlns="http://www.w3.org/2000/svg"
  style="
    transform: matrix(0.659101, 0, 0, 0.659101, 0, 0);
    transform-origin: 50% 50%;
    cursor: move;
    transition: transform 200ms ease-in-out;
  "
  width="316"
  height="316"
  viewBox="0 0 3160 3160"
>
  <g
    id="l1PDrtBCWMnT8sWv07ombCE"
    fill="rgb(255,255,255)"
    style="transform: none"
  >
    <g style="transform: none">
      <path
        id="p1467WP77Q"
        d="M0 1580 l0 -1580 1580 0 1580 0 0 1580 0 1580 -1580 -1 -1580 0 0 -1579z m1871 841 l4 -150 29 -30 c25 -26 37 -31 76 -31 51 0 83 22 102 68 6 15 13 86 16 159 l5 132 31 -6 c83 -16 255 -92 228 -101 -8 -2 -12 -33 -12 -88 l0 -84 54 0 55 0 3 43 4 42 13 -30 c27 -58 25 -136 -3 -237 -30 -102 -39 -119 -58 -100 -7 7 -27 12 -45 12 l-33 0 0 -85 c0 -69 3 -85 15 -85 13 0 12 -7 -6 -42 -34 -66 -73 -122 -77 -109 -2 6 -21 11 -41 11 -51 0 -110 -41 -194 -135 -91 -101 -126 -118 -250 -123 l-97 -4 9 25 c24 64 53 107 91 137 44 35 48 55 28 121 -9 33 -16 39 -38 39 -44 0 -113 -73 -156 -164 -20 -43 -55 -100 -78 -125 -55 -59 -57 -66 -67 -191 -24 -300 -24 -284 5 -334 17 -30 34 -46 46 -46 11 0 20 -6 20 -12 1 -7 23 -31 50 -52 28 -22 50 -46 50 -54 0 -25 -34 -72 -52 -72 -20 0 -138 116 -138 135 0 35 -123 95 -193 95 -49 0 -57 3 -73 28 -25 38 -30 118 -10 166 9 21 16 59 16 85 0 42 -4 51 -40 84 -61 58 -74 123 -40 202 14 33 20 69 20 120 0 70 -2 76 -32 110 -27 29 -40 35 -74 35 l-41 0 -45 -92 c-148 -301 -178 -401 -178 -605 0 -125 14 -203 50 -273 24 -46 14 -51 -30 -14 -43 37 -68 90 -81 176 -14 92 -6 181 27 294 42 142 42 188 0 339 -36 129 -44 213 -27 290 7 31 41 49 41 21 0 -12 10 -16 35 -16 32 0 35 2 35 30 0 27 3 30 30 30 20 0 30 5 30 15 0 8 9 15 20 15 13 0 20 -7 20 -20 0 -17 7 -20 40 -20 29 0 40 4 40 15 0 8 5 15 10 15 6 0 10 -9 10 -20 0 -17 7 -20 40 -20 30 0 40 4 40 16 0 14 11 15 91 9 124 -10 166 -23 77 -24 l-68 -1 0 -35 c0 -28 5 -37 30 -50 16 -8 52 -15 80 -15 l50 0 0 35 c0 28 4 35 20 35 14 0 20 7 20 21 0 15 5 19 18 15 9 -2 74 -10 145 -17 124 -11 127 -12 127 -35 0 -21 5 -24 35 -24 28 0 35 4 35 20 0 18 5 19 98 13 l98 -6 122 72 c68 39 125 71 127 71 3 0 5 -29 5 -65 0 -61 2 -66 26 -75 14 -6 39 -10 55 -10 l29 0 0 79 0 79 -38 7 c-37 6 -37 6 -34 50 l4 45 -33 0 c-22 0 -63 -17 -113 -45 -43 -25 -80 -45 -82 -45 -1 0 -30 -16 -64 -36 -56 -33 -65 -35 -118 -29 -129 13 -142 16 -142 31 0 9 -11 14 -35 14 -19 0 -35 -4 -35 -10 0 -5 -7 -10 -15 -10 -8 0 -15 7 -15 15 0 10 -11 15 -35 15 -22 0 -35 -5 -35 -13 0 -10 -37 -9 -182 5 -101 9 -186 17 -190 18 -5 0 -8 7 -8 15 0 10 -11 15 -35 15 -19 0 -35 -4 -35 -10 0 -11 -61 -13 -109 -4 -17 4 -31 13 -31 20 0 9 -12 14 -35 14 -19 0 -35 -4 -35 -10 0 -12 -77 -14 -84 -2 -2 4 8 30 22 57 l27 50 60 3 c63 3 75 11 75 52 0 19 3 21 12 12 15 -15 63 -16 89 -2 17 10 19 22 19 135 0 155 17 175 22 26 3 -106 4 -111 33 -141 37 -38 168 -110 201 -110 34 0 170 57 203 85 25 22 26 29 31 141 3 81 9 119 18 122 9 3 12 -26 12 -121 0 -112 2 -127 21 -152 19 -24 27 -26 70 -23 l48 3 3 -45 c3 -39 6 -45 27 -48 12 -2 34 -1 47 2 l24 6 -2 198 -3 197 -45 4 c-35 2 -41 5 -25 11 11 5 36 9 56 9 l37 1 3 -149z m-855 -994 c1 -87 22 -150 64 -195 20 -21 21 -26 10 -99 -13 -82 -7 -150 17 -198 29 -56 42 -65 99 -65 42 0 65 -7 113 -35 32 -19 65 -35 71 -35 24 0 -4 -46 -66 -111 -56 -58 -64 -72 -70 -117 -12 -95 -74 -108 -74 -16 0 43 -1 44 -33 44 -30 0 -36 -4 -50 -40 -16 -41 -22 -46 -46 -31 -11 7 -11 14 3 41 9 18 16 48 16 67 0 32 -1 33 -39 33 -31 0 -43 -6 -59 -27 -13 -18 -25 -24 -36 -20 -13 5 -15 11 -7 26 6 10 13 43 17 72 5 48 2 62 -30 127 -80 162 -76 283 16 541 35 100 46 121 63 121 18 0 20 -7 21 -83z m985 -77 c21 0 39 -5 39 -10 0 -6 -20 -33 -45 -59 -25 -26 -45 -53 -45 -60 0 -6 -12 -11 -26 -11 -14 0 -39 -9 -54 -20 -16 -12 -54 -32 -84 -46 -57 -26 -136 -106 -136 -138 0 -9 -8 -16 -19 -16 -11 0 -25 -2 -33 -5 -7 -3 -23 10 -36 29 -22 32 -23 41 -15 98 8 62 8 63 42 66 l34 3 -7 53 c-5 45 -3 58 15 80 20 25 24 26 132 27 62 1 126 5 142 9 17 4 36 6 43 4 8 -2 31 -4 53 -4z m-54 -250 c-21 -30 -82 -70 -105 -70 -11 0 -27 -11 -36 -24 -8 -14 -30 -38 -48 -55 -24 -23 -35 -27 -45 -19 -11 9 -9 14 9 26 12 9 35 31 52 50 16 18 52 45 80 59 28 14 62 34 75 44 30 24 38 18 18 -11z"
      ></path>
      <path
        id="pjfzdpCDV"
        d="M2230 2385 l0 -75 55 0 55 0 0 63 c0 58 -2 63 -27 75 -15 6 -40 12 -55 12 l-28 0 0 -75z"
      ></path>
    </g>
  </g>
  <g id="l5n5Ex5WNvy99vifqco4SnS" fill="rgb(222,64,26)" style="transform: none">
    <g style="transform: none">
      <path
        id="p1cyfVGt9"
        d="M1750 2594 c-76 -12 -242 -52 -371 -91 -12 -3 -20 5 -29 31 -17 53 -43 66 -125 66 -155 0 -200 -41 -239 -221 -4 -20 -19 -32 -64 -51 -73 -32 -113 -77 -168 -192 -95 -197 -107 -346 -48 -561 39 -143 39 -146 -4 -285 -22 -74 -26 -103 -26 -225 0 -149 9 -200 46 -255 31 -45 64 -67 123 -82 28 -6 53 -15 58 -18 4 -4 1 -23 -8 -43 -16 -40 -12 -63 16 -77 34 -18 63 -11 91 22 34 42 43 33 18 -20 -28 -58 -26 -79 11 -98 46 -23 77 -11 99 39 l19 42 0 -47 c1 -39 5 -50 25 -63 27 -18 67 -12 89 13 8 10 18 39 22 66 6 43 15 59 70 115 37 39 68 82 75 105 l12 38 54 -55 c81 -85 136 -90 173 -14 33 69 29 89 -34 138 -30 24 -54 47 -55 51 0 4 14 15 32 24 24 12 33 13 36 5 7 -22 46 -59 68 -65 24 -7 81 33 114 81 13 18 31 33 42 33 26 0 87 43 109 77 22 32 24 61 7 97 -10 23 -7 30 34 74 39 41 88 138 88 172 0 6 32 44 71 86 103 111 164 202 235 351 135 279 152 461 55 574 -126 148 -404 210 -721 163z m-437 -45 c9 -12 17 -29 17 -40 0 -10 7 -22 16 -27 18 -10 29 -9 123 19 78 24 81 24 81 -1 0 -21 33 -29 45 -10 3 6 15 10 26 10 13 0 19 7 19 24 0 18 7 25 31 30 48 9 59 7 59 -10 0 -14 7 -15 43 -10 23 4 61 10 85 13 26 4 42 11 42 19 0 11 19 14 80 14 67 0 81 -3 89 -19 7 -12 26 -20 61 -25 30 -4 53 -13 57 -21 3 -9 18 -15 37 -15 19 0 62 -18 109 -44 43 -25 81 -45 85 -46 4 -1 6 -6 4 -11 -1 -5 9 -31 23 -57 40 -75 29 -193 -31 -315 -15 -32 -24 -68 -24 -99 0 -26 -4 -48 -10 -48 -5 0 -10 7 -10 16 0 24 -17 7 -23 -23 -3 -16 -17 -44 -31 -63 -14 -19 -30 -46 -36 -59 -8 -18 -14 -21 -22 -13 -7 7 -43 12 -84 12 -67 0 -72 -2 -78 -23 -11 -47 -64 -106 -105 -118 -37 -11 -45 -10 -85 11 -24 13 -51 37 -61 52 -9 15 -22 28 -28 28 -8 0 -11 14 -9 44 5 59 -19 76 -105 76 -54 0 -69 -4 -107 -31 -24 -17 -55 -31 -69 -31 -13 -1 -50 16 -81 36 l-57 36 -142 -11 c-78 -7 -146 -16 -152 -20 -5 -5 -17 -9 -26 -9 -10 0 -19 -4 -21 -9 -1 -5 -71 -12 -154 -16 l-151 -7 -7 50 c-7 52 2 105 29 181 18 53 18 51 -1 51 -9 0 -14 -8 -13 -17 4 -41 -2 -63 -16 -63 -19 0 -19 6 0 61 12 35 21 45 37 45 15 -1 31 16 59 63 22 34 39 68 39 75 0 6 11 20 25 30 14 11 25 29 25 42 0 29 17 32 22 5 3 -18 5 -18 41 -4 29 12 35 18 26 29 -8 10 -6 34 9 95 23 92 42 123 42 69 l0 -35 19 30 c10 17 28 39 40 49 11 11 21 27 21 37 0 36 143 34 173 -2z m1099 -633 c-9 -18 -11 -16 -11 19 0 33 1 37 10 21 8 -12 8 -25 1 -40z m-1334 -201 c39 -43 43 -98 12 -170 -39 -92 -22 -202 40 -262 44 -41 47 -54 25 -106 -22 -53 -20 -173 4 -217 17 -33 21 -35 82 -40 63 -5 153 -43 180 -77 20 -24 -10 -15 -72 22 -48 28 -71 35 -113 35 -55 0 -70 9 -96 60 -30 57 -31 86 -4 235 4 23 0 37 -20 60 -34 38 -63 103 -71 157 -5 33 0 65 23 135 27 85 31 136 12 148 -5 3 -20 -31 -35 -75 -15 -44 -31 -80 -35 -80 -16 0 -19 16 -10 56 10 44 -2 67 -19 36 -22 -42 -123 -338 -137 -401 -16 -76 -18 -237 -4 -298 6 -23 26 -75 45 -114 19 -40 34 -74 32 -75 -14 -14 -81 111 -102 191 -30 118 -14 308 40 451 49 129 164 364 179 364 6 0 26 -16 44 -35z m676 -80 c-29 -27 -56 -68 -84 -128 -23 -49 -40 -90 -38 -92 2 -2 66 0 143 4 171 9 196 20 292 126 63 70 143 135 166 135 6 0 2 -9 -7 -19 -10 -11 -15 -25 -11 -30 3 -6 -2 -11 -12 -11 -25 0 -230 -207 -218 -219 6 -5 21 -11 35 -14 14 -2 -9 -4 -50 -4 -181 -1 -345 -15 -363 -31 -25 -22 -40 -84 -27 -116 9 -24 8 -26 -13 -20 -33 8 -42 -9 -56 -103 l-13 -83 27 -35 c14 -20 25 -41 22 -48 -2 -6 -16 10 -32 36 -25 44 -27 54 -21 110 4 34 11 109 15 167 10 125 12 132 67 191 23 25 58 82 78 125 23 50 52 94 79 119 l42 40 11 -30 c11 -28 10 -32 -32 -70z m161 -481 c-16 -14 -55 -38 -85 -54 -30 -15 -75 -49 -99 -74 -57 -61 -66 -51 -12 13 28 33 62 59 104 79 34 16 71 37 82 46 33 26 42 17 10 -10z"
      ></path>
      <path
        id="pG9MY0Wiq"
        d="M1542 1358 c-19 -23 -24 -81 -9 -102 12 -16 15 -13 27 38 14 59 5 91 -18 64z"
      ></path>
      <path
        id="p17ORwkFiE"
        d="M2470 2477 c35 -37 66 -67 68 -67 7 0 -38 56 -65 81 -62 56 -64 49 -3 -14z"
      ></path>
      <path
        id="p1E1BwmxsO"
        d="M210 2071 c0 -22 -6 -30 -25 -35 -32 -8 -32 -22 1 -30 21 -6 25 -12 21 -32 -6 -32 8 -40 26 -14 11 16 21 19 41 14 29 -7 32 -3 14 26 -10 15 -9 22 5 38 25 27 21 34 -12 27 -24 -5 -33 -2 -43 14 -18 29 -28 26 -28 -8z"
      ></path>
      <path
        id="p18gi7lzoY"
        d="M2945 2079 c-6 -17 -13 -20 -36 -15 -33 6 -36 0 -13 -25 12 -13 13 -22 5 -38 -16 -29 -14 -33 17 -26 20 4 33 1 42 -10 19 -23 32 -18 28 13 -2 20 3 29 20 37 29 13 28 23 -3 31 -15 4 -28 16 -31 30 -8 30 -20 31 -29 3z"
      ></path>
      <path
        id="pkIQdRaCS"
        d="M116 1859 c-15 -48 -15 -99 0 -113 19 -20 48 -21 63 -2 9 11 17 8 44 -17 26 -24 33 -27 35 -13 2 9 -10 32 -27 52 -36 40 -32 58 9 49 30 -7 52 12 30 25 -7 5 -38 11 -68 15 -30 4 -61 9 -68 12 -8 3 -16 -1 -18 -8z m62 -49 c1 -9 -4 -24 -12 -35 -20 -27 -40 -8 -30 29 7 29 36 33 42 6z"
      ></path>
      <path
        id="pUKxn2O8W"
        d="M2991 1815 c-28 -22 -55 -35 -73 -35 -23 0 -29 -4 -26 -17 3 -14 11 -17 40 -15 22 2 53 -5 79 -17 52 -25 49 -25 49 -2 0 13 -11 23 -36 31 l-37 12 32 25 c28 22 42 53 24 53 -5 0 -28 -16 -52 -35z"
      ></path>
      <path
        id="p8y6CASX8"
        d="M160 1666 c-86 -30 -88 -47 -13 -84 82 -42 103 -47 103 -27 0 8 -7 18 -15 21 -9 4 -15 19 -15 41 0 26 5 36 20 40 25 7 27 33 3 32 -10 0 -47 -11 -83 -23z m30 -47 c0 -15 -4 -19 -16 -15 -9 3 -20 6 -25 6 -16 0 -10 18 9 23 30 8 32 7 32 -14z"
      ></path>
      <path
        id="pb9Yew9sd"
        d="M2909 1643 c-14 -38 -3 -89 24 -108 53 -37 137 0 137 62 0 30 -24 73 -41 73 -12 0 -12 -37 1 -45 17 -11 11 -43 -12 -59 -29 -21 -41 -20 -68 2 -18 14 -22 25 -16 45 8 32 22 35 29 7 8 -33 27 -23 27 15 0 33 -2 35 -35 35 -29 0 -37 -5 -46 -27z"
      ></path>
      <path
        id="pq97kT0nE"
        d="M2873 1605 c0 -33 2 -45 4 -27 2 18 2 45 0 60 -2 15 -4 0 -4 -33z"
      ></path>
      <path
        id="pDqcXmqhW"
        d="M90 1506 c0 -12 10 -16 39 -16 54 0 59 -14 11 -33 -29 -11 -40 -21 -40 -36 0 -17 8 -21 51 -27 55 -7 54 -15 -3 -34 -21 -6 -38 -18 -38 -26 0 -8 4 -14 9 -14 17 0 151 52 151 59 -1 19 -21 29 -68 36 -60 8 -58 14 11 39 26 10 47 21 47 24 -1 22 -23 31 -92 37 -68 6 -78 5 -78 -9z"
      ></path>
      <path
        id="piNvrSxNg"
        d="M2944 1480 c-28 -11 -54 -48 -54 -78 0 -38 43 -72 90 -72 51 0 80 27 80 75 0 36 -28 75 -54 75 -8 0 -20 2 -28 4 -7 3 -23 1 -34 -4z m67 -40 c21 -12 25 -50 7 -68 -19 -19 -63 -14 -83 8 -15 17 -16 24 -7 45 13 27 48 33 83 15z"
      ></path>
      <path
        id="p1DEahMg2J"
        d="M2863 1425 c0 -22 2 -30 4 -17 2 12 2 30 0 40 -3 9 -5 -1 -4 -23z"
      ></path>
      <path
        id="p10kYuTQK"
        d="M197 1293 c-96 -67 -89 -85 41 -98 51 -5 72 -4 72 4 0 6 -11 16 -24 21 -33 12 -45 66 -19 85 12 9 15 17 8 24 -7 7 -32 -5 -78 -36z m33 -43 c0 -15 -7 -20 -25 -20 -29 0 -32 8 -7 26 24 19 32 17 32 -6z"
      ></path>
      <path
        id="p1AqsZAweK"
        d="M2881 1308 c-5 -14 -13 -41 -16 -59 l-6 -34 77 -17 c43 -10 79 -16 82 -13 13 13 -12 34 -50 40 -69 12 -78 20 -67 57 11 41 -6 63 -20 26z"
      ></path>
      <path
        id="pYmxnkdya"
        d="M2790 1146 c-5 -15 -10 -35 -9 -44 0 -9 7 1 15 22 8 22 12 41 9 44 -2 3 -9 -7 -15 -22z"
      ></path>
      <path
        id="pLLcxRFyq"
        d="M233 1137 c-46 -15 -63 -26 -63 -39 0 -23 3 -22 68 2 67 26 67 26 78 -12 10 -33 34 -51 34 -24 0 27 -32 96 -44 95 -6 0 -39 -10 -73 -22z"
      ></path>
      <path
        id="pbhboldA4"
        d="M2837 1143 c-40 -45 -30 -101 23 -128 41 -21 67 -19 95 10 35 34 34 86 -1 114 -33 26 -95 28 -117 4z m93 -31 c27 -22 22 -67 -8 -74 -46 -12 -92 34 -72 72 13 25 51 26 80 2z"
      ></path>
      <path
        id="pD8jNuPGK"
        d="M2747 1043 c-4 -3 -7 -16 -6 -27 0 -19 1 -19 10 3 10 24 8 36 -4 24z"
      ></path>
      <path
        id="pERrcQKrH"
        d="M283 999 l-62 -30 19 -42 c24 -53 60 -70 90 -42 21 19 22 38 5 77 -5 13 0 21 19 29 29 14 35 39 9 38 -10 0 -46 -14 -80 -30z m37 -70 c0 -3 -6 -12 -14 -18 -11 -10 -18 -7 -30 11 -15 21 -15 24 1 36 15 11 20 10 30 -5 7 -9 13 -20 13 -24z"
      ></path>
      <path
        id="pTBYHd5el"
        d="M2776 1013 c-14 -14 -3 -25 65 -59 56 -28 74 -33 80 -23 4 8 7 14 6 15 -17 14 -146 71 -151 67z"
      ></path>
      <path
        id="pNFPY0HbS"
        d="M2682 914 c-12 -18 -22 -39 -22 -46 0 -7 12 6 26 30 31 52 28 65 -4 16z"
      ></path>
      <path
        id="p16YQdlGjK"
        d="M2745 922 c-12 -8 -55 -67 -55 -75 0 -6 124 -87 132 -87 13 0 48 68 48 93 0 48 -87 96 -125 69z m72 -46 c25 -21 26 -26 15 -50 -12 -26 -13 -27 -40 -11 -65 39 -67 42 -47 65 24 26 38 25 72 -4z"
      ></path>
      <path
        id="pr1lUZIb6"
        d="M365 860 c-53 -35 -80 -69 -49 -63 25 4 134 77 131 86 -6 20 -22 16 -82 -23z"
      ></path>
      <path
        id="pnL3qP3Kx"
        d="M397 793 c-70 -54 -65 -67 24 -61 l62 4 -24 -19 c-13 -11 -33 -26 -44 -33 -14 -10 -16 -17 -8 -25 9 -9 26 0 70 33 78 59 77 74 -7 70 l-65 -2 30 25 c17 13 33 24 38 25 4 0 7 7 7 15 0 25 -22 16 -83 -32z"
      ></path>
      <path
        id="p1HoakSGe0"
        d="M2665 808 c-4 -9 -2 -32 3 -51 13 -47 0 -68 -27 -43 -19 17 -58 16 -47 -2 2 -4 32 -29 65 -55 l59 -47 31 42 c45 62 38 98 -21 98 -20 0 -28 5 -28 18 0 10 -6 27 -14 38 -13 17 -15 17 -21 2z m81 -99 c10 -17 -33 -56 -47 -42 -8 8 -8 17 0 32 13 23 36 28 47 10z"
      ></path>
      <path
        id="pH2xwWi35"
        d="M620 710 c11 -16 26 -33 32 -36 7 -4 -1 9 -16 29 -34 44 -46 50 -16 7z"
      ></path>
      <path
        id="pNeu1bZUN"
        d="M505 656 l-60 -53 37 -37 c40 -40 55 -43 98 -21 56 29 65 77 24 131 -15 19 -29 34 -33 34 -3 0 -33 -24 -66 -54z m84 -10 c15 -28 3 -59 -30 -76 -16 -9 -26 -8 -46 5 l-25 17 38 39 c21 21 41 39 44 39 4 0 12 -11 19 -24z"
      ></path>
      <path
        id="pqDgEfkUj"
        d="M2562 659 c6 -36 -23 -61 -63 -57 -47 6 -23 -22 48 -56 61 -30 73 -33 84 -20 9 11 6 30 -17 89 -30 78 -61 104 -52 44z m31 -79 c6 -23 3 -24 -24 -10 -15 9 -17 13 -7 24 16 17 24 13 31 -14z"
      ></path>
      <path
        id="pYE4sEbTx"
        d="M640 558 c-55 -63 -63 -79 -53 -89 12 -12 116 97 110 114 -7 21 -23 14 -57 -25z"
      ></path>
      <path
        id="pGiysNkp0"
        d="M2364 559 c-19 -22 -19 -22 3 -10 24 12 39 31 25 31 -5 0 -17 -10 -28 -21z"
      ></path>
      <path
        id="p1D1CipR0g"
        d="M2391 524 c-11 -15 -21 -33 -21 -41 0 -39 49 -92 86 -93 32 0 74 37 74 66 0 15 -6 24 -15 24 -8 0 -15 -8 -15 -19 0 -10 -7 -24 -15 -31 -36 -29 -104 40 -75 75 8 9 25 15 39 13 18 -2 26 2 26 12 0 9 -12 16 -31 18 -25 2 -37 -3 -53 -24z"
      ></path>
      <path
        id="pvBDBLZ8m"
        d="M762 430 c-44 -62 -51 -80 -28 -80 17 0 99 117 91 130 -11 18 -21 11 -63 -50z"
      ></path>
      <path
        id="pCxwIiITq"
        d="M819 390 c-51 -86 -43 -102 33 -64 26 13 50 24 53 24 3 0 -5 -18 -17 -40 -17 -28 -20 -42 -12 -50 8 -8 22 8 53 59 22 38 41 72 41 74 0 17 -38 13 -74 -8 -24 -14 -46 -25 -50 -25 -4 0 3 18 15 40 16 29 20 43 12 51 -8 8 -23 -9 -54 -61z"
      ></path>
      <path
        id="pLcM1NDjb"
        d="M2180 395 c0 -10 70 -145 75 -145 12 0 95 45 95 51 0 17 -21 19 -48 5 -16 -8 -32 -12 -36 -9 -13 13 -5 30 19 41 14 6 25 16 25 22 0 13 -37 13 -45 0 -11 -18 -31 -11 -43 15 -10 21 -42 36 -42 20z"
      ></path>
      <path
        id="pNc7UmL9o"
        d="M984 349 c-11 -18 12 -32 32 -21 22 12 54 -2 54 -23 0 -11 -13 -15 -55 -15 -50 0 -55 -2 -61 -24 -8 -32 1 -45 40 -61 20 -9 37 -10 48 -4 27 15 21 30 -10 27 -30 -2 -52 8 -52 23 0 5 20 9 44 8 25 -2 51 3 60 10 23 19 20 57 -6 75 -26 18 -84 21 -94 5z"
      ></path>
      <path
        id="pYfv5C5SB"
        d="M2073 345 c-72 -31 -44 -155 36 -155 77 0 108 85 52 141 -33 33 -42 34 -88 14z m61 -31 c9 -8 19 -26 22 -40 14 -56 -59 -74 -84 -21 -12 24 -11 31 2 53 19 28 38 31 60 8z"
      ></path>
      <path
        id="pYmDqaove"
        d="M1175 298 c-2 -7 -10 -35 -18 -63 -13 -46 -17 -50 -42 -47 -18 2 -26 -1 -23 -10 6 -16 116 -49 124 -37 7 13 -4 29 -22 29 -18 0 -18 15 1 75 8 27 12 52 9 57 -8 12 -24 10 -29 -4z"
      ></path>
      <path
        id="prsSGqQkQ"
        d="M1261 223 c-6 -32 -14 -69 -18 -82 -5 -18 -2 -22 12 -20 13 3 23 23 35 76 9 40 15 75 12 78 -17 16 -31 -2 -41 -52z"
      ></path>
      <path
        id="piTFYpBNY"
        d="M1820 271 c-19 -3 -35 -10 -35 -16 2 -42 19 -146 24 -149 13 -7 112 19 109 29 -2 6 -21 10 -42 10 -46 0 -60 22 -19 30 46 11 53 14 53 26 0 7 -13 9 -40 4 -32 -5 -41 -3 -46 10 -9 21 -1 27 43 34 44 7 58 32 16 30 -15 -1 -44 -4 -63 -8z"
      ></path>
      <path
        id="p8m3XYPaY"
        d="M1365 194 c-6 -63 -8 -66 -31 -61 -15 3 -24 0 -24 -9 0 -13 28 -21 89 -26 38 -3 56 19 19 24 -21 3 -23 8 -20 48 1 25 5 55 7 68 4 17 1 22 -14 22 -16 0 -20 -10 -26 -66z"
      ></path>
      <path
        id="py3m3zJU0"
        d="M1684 246 c-3 -9 -4 -41 -2 -71 4 -48 2 -54 -15 -57 -11 -2 -22 -9 -25 -16 -3 -10 11 -12 59 -10 39 2 64 8 67 16 2 7 -6 12 -21 12 -22 0 -25 5 -31 62 -6 66 -21 94 -32 64z"
      ></path>
      <path
        id="pmOlX6VY"
        d="M1492 237 c-6 -7 -13 -44 -14 -83 -2 -56 0 -69 12 -69 11 0 16 16 20 65 5 62 6 65 33 68 l27 3 0 -70 c0 -56 3 -71 15 -71 12 0 15 15 15 75 0 63 -3 76 -19 85 -27 14 -76 13 -89 -3z"
      ></path>
    </g>
  </g>
  <g id="l78VRlrx6gDP7AMLYryRINt" fill="rgb(0,122,53)" style="transform: none">
    <g style="transform: none">
      <path
        id="pB1eAE16v"
        d="M1380 3144 c-524 -71 -977 -394 -1211 -864 -251 -506 -216 -1097 94 -1568 112 -169 249 -312 409 -425 545 -384 1269 -384 1823 1 118 82 317 286 398 407 115 175 194 362 239 569 19 86 22 132 23 311 0 183 -3 224 -23 315 -95 434 -331 778 -692 1012 -212 138 -423 213 -680 243 -150 18 -241 18 -380 -1z m465 -44 c298 -51 573 -188 793 -396 241 -226 401 -514 462 -830 156 -812 -350 -1602 -1152 -1798 -871 -212 -1738 359 -1889 1245 -18 106 -21 150 -16 304 8 258 45 411 158 640 220 448 645 760 1144 840 129 21 364 18 500 -5z"
      ></path>
      <path
        id="pLXIwFDW5"
        d="M1473 3018 c-24 -47 -28 -50 -30 -28 -7 53 -14 70 -28 70 -12 0 -13 -13 -9 -67 7 -85 10 -93 29 -93 10 0 25 20 38 50 12 27 25 50 29 50 4 0 8 -21 10 -47 2 -27 8 -47 13 -46 25 6 14 163 -11 163 -7 0 -26 -24 -41 -52z"
      ></path>
      <path
        id="p15k1MveV8"
        d="M1630 3031 c0 -74 -10 -101 -37 -101 -15 0 -23 -5 -20 -12 5 -16 126 -18 130 -3 1 6 -8 11 -20 13 -21 3 -23 8 -23 73 0 55 -3 69 -15 69 -11 0 -15 -11 -15 -39z"
      ></path>
      <path
        id="p1EO9Mxmaw"
        d="M1273 3037 c-24 -5 -43 -15 -42 -21 0 -6 6 -40 13 -76 l12 -65 38 3 c21 2 49 7 63 13 38 14 16 30 -29 20 -20 -5 -39 -6 -42 -3 -16 15 -2 31 35 37 54 9 46 31 -9 27 -37 -3 -42 -1 -42 17 0 16 8 22 40 27 24 4 40 12 40 20 0 16 -16 16 -77 1z"
      ></path>
      <path
        id="p4xWvcX3e"
        d="M1810 3008 c-36 -59 -22 -109 34 -128 60 -19 106 19 106 90 0 37 -41 70 -86 70 -28 0 -38 -6 -54 -32z m100 -18 c15 -28 1 -70 -27 -83 -22 -10 -28 -8 -43 11 -18 22 -17 54 3 80 15 19 55 14 67 -8z"
      ></path>
      <path
        id="pMS1vD6al"
        d="M1150 2997 c0 -8 5 -28 11 -46 17 -47 4 -48 -22 -1 -34 60 -55 50 -52 -25 l2 -60 -17 47 c-19 53 -27 63 -41 54 -13 -8 37 -156 52 -156 30 1 40 18 35 64 -3 25 -2 46 1 46 4 0 18 -18 30 -40 19 -34 27 -40 44 -34 12 3 24 8 26 10 7 6 -46 148 -57 152 -7 2 -12 -3 -12 -11z"
      ></path>
      <path
        id="psmDHrB7i"
        d="M1992 2943 c-11 -32 -23 -65 -27 -74 -5 -13 4 -20 41 -33 55 -19 64 -20 64 -6 0 5 -16 16 -35 24 -26 11 -33 19 -29 31 7 16 18 16 57 0 12 -5 17 -2 17 9 0 8 -12 19 -26 22 -23 6 -25 10 -19 45 5 31 4 39 -8 39 -9 0 -23 -22 -35 -57z"
      ></path>
      <path
        id="pKzCmcAqX"
        d="M935 2868 l-7 -62 -26 43 c-18 31 -28 39 -36 31 -8 -8 -2 -28 24 -76 44 -82 64 -83 68 -1 2 31 7 57 11 57 4 0 16 -18 26 -40 18 -40 29 -48 40 -31 8 14 -64 141 -80 141 -9 0 -15 -21 -20 -62z"
      ></path>
      <path
        id="pNxSvpnOu"
        d="M2192 2855 c-18 -36 -32 -69 -32 -73 0 -11 66 -42 88 -42 26 0 42 20 42 52 0 21 -8 31 -31 43 -22 12 -29 21 -24 33 30 71 -7 60 -43 -13z m58 -50 c21 -25 -7 -46 -38 -27 -15 10 -5 42 13 42 7 0 18 -7 25 -15z"
      ></path>
      <path
        id="pB7GfbBIl"
        d="M1365 2855 c-276 -51 -497 -167 -695 -365 -202 -200 -318 -427 -365 -709 -27 -158 -17 -367 24 -526 36 -141 130 -339 213 -450 109 -146 293 -302 451 -382 185 -93 367 -136 582 -137 171 0 257 12 401 59 455 149 778 512 880 990 27 124 24 380 -5 509 -113 499 -473 869 -963 992 -132 33 -395 42 -523 19z m463 -40 c506 -98 908 -511 998 -1025 24 -142 15 -391 -20 -522 -31 -119 -89 -254 -149 -350 -157 -253 -399 -445 -677 -538 -241 -81 -550 -81 -792 0 -192 65 -358 168 -503 314 -142 142 -238 300 -300 490 -47 145 -60 231 -59 401 0 334 115 618 347 862 209 219 471 349 777 387 68 8 296 -3 378 -19z"
      ></path>
      <path
        id="p10mAiaok5"
        d="M792 2848 c-6 -6 -12 -31 -12 -54 0 -53 -12 -62 -39 -27 -16 19 -24 24 -33 15 -8 -8 -1 -26 27 -67 22 -31 44 -60 50 -65 14 -12 95 56 95 80 0 23 -37 51 -57 43 -11 -5 -14 -1 -9 13 3 10 2 32 -2 47 -6 22 -10 25 -20 15z m42 -139 c-19 -22 -39 -24 -50 -7 -4 6 3 19 16 30 17 14 26 16 37 7 11 -10 11 -15 -3 -30z"
      ></path>
      <path
        id="p6ONtPp3e"
        d="M2369 2808 c-9 -7 -30 -32 -49 -56 -25 -34 -30 -46 -21 -55 13 -13 15 -11 71 62 17 22 30 30 42 26 29 -11 27 -31 -8 -83 -39 -58 -39 -58 -20 -65 9 -4 27 14 51 49 43 63 42 95 -5 119 -35 18 -42 19 -61 3z"
      ></path>
      <path
        id="pODCp5G2U"
        d="M602 2701 l-43 -38 52 -61 52 -61 26 18 c40 29 64 59 56 71 -5 8 -16 3 -35 -15 -19 -18 -35 -25 -46 -21 -15 6 -13 11 15 40 40 41 24 62 -18 22 -25 -24 -28 -25 -43 -10 -15 15 -13 19 18 46 19 17 31 34 28 39 -8 14 -16 11 -62 -30z"
      ></path>
      <path
        id="p2Z9Ju9As"
        d="M2481 2663 c-42 -47 -49 -59 -38 -70 11 -11 21 -10 60 3 27 9 50 14 52 12 3 -2 -9 -20 -25 -40 -22 -26 -27 -39 -18 -44 7 -5 31 14 65 52 29 32 53 62 53 65 0 13 -30 18 -53 10 -12 -4 -35 -11 -51 -15 l-28 -7 30 39 c29 36 32 52 11 52 -4 0 -30 -26 -58 -57z"
      ></path>
      <path
        id="pcxHSQjuD"
        d="M477 2583 c-13 -12 -7 -32 29 -95 45 -78 42 -74 56 -60 8 8 4 23 -17 57 -15 26 -24 49 -21 53 4 3 27 -4 53 -17 32 -15 49 -19 56 -12 15 15 3 24 -76 55 -76 29 -71 28 -80 19z"
      ></path>
      <path
        id="p1E9h86iPR"
        d="M2641 2581 c-17 -11 -4 -34 15 -27 8 3 18 -2 21 -11 4 -11 -9 -29 -43 -59 -40 -35 -46 -44 -32 -49 20 -8 104 57 111 86 6 21 -27 69 -46 69 -7 0 -18 -4 -26 -9z"
      ></path>
      <path
        id="pomARgxZp"
        d="M2716 2424 c-69 -103 -63 -113 46 -88 40 9 77 18 81 21 14 8 -13 31 -32 26 -25 -6 -57 43 -41 62 8 9 8 20 2 31 -8 14 -17 6 -56 -52z m40 -35 c7 -12 -12 -29 -34 -29 -10 0 -10 4 0 20 14 23 24 25 34 9z"
      ></path>
      <path
        id="pxBuXbbgt"
        d="M393 2459 c-27 -10 -53 -47 -53 -77 0 -35 52 -82 90 -82 40 0 80 39 80 78 0 50 -70 99 -117 81z m67 -49 c24 -24 25 -43 4 -64 -18 -19 -28 -20 -54 -6 -49 26 -45 90 5 90 14 0 34 -9 45 -20z"
      ></path>
      <path
        id="pUjefNBCy"
        d="M2797 2284 l-67 -34 16 -33 c32 -64 76 -89 91 -52 3 9 13 15 22 14 38 -3 51 2 57 25 6 25 -28 116 -43 116 -4 -1 -38 -17 -76 -36z m88 -64 c-11 -18 -32 -11 -43 15 -9 20 -8 26 6 34 13 8 20 4 30 -15 7 -13 10 -29 7 -34z m-69 4 c9 -36 -10 -51 -30 -23 -11 17 -13 26 -4 36 16 20 27 16 34 -13z"
      ></path>
      <path
        id="pEUgYrjaI"
        d="M278 2293 c-23 -26 -40 -72 -33 -94 9 -28 54 -59 87 -59 41 0 78 40 78 84 0 19 -4 37 -9 41 -14 8 -26 -16 -22 -47 5 -52 -63 -61 -95 -13 -12 18 -13 28 -4 44 14 27 42 28 38 1 -5 -28 15 -27 32 3 17 30 9 42 -30 52 -18 4 -31 1 -42 -12z"
      ></path>
    </g>
  </g>
  <g
    id="lFPStv1B2UkIBxTpg7KwfS"
    fill="rgb(113,112,110)"
    style="transform: none"
  >
    <g style="transform: none">
      <path
        id="pav5eAGtH"
        d="M1820 2320 c0 -253 -1 -260 -20 -260 -19 0 -20 7 -20 255 0 262 -1 270 -38 246 -10 -6 -13 -39 -11 -139 2 -132 -4 -162 -36 -162 -24 0 -49 41 -50 83 -5 201 -3 193 -27 194 -13 1 -33 -5 -45 -13 -21 -13 -23 -22 -23 -104 0 -110 -11 -126 -124 -174 l-78 -34 -67 35 c-36 20 -82 51 -101 70 l-35 33 -3 110 c-4 117 -9 126 -48 89 -22 -21 -23 -27 -17 -115 4 -68 3 -94 -5 -94 -7 0 -12 -7 -12 -15 0 -8 -9 -19 -20 -25 -16 -8 -22 -7 -32 9 -11 18 -14 18 -41 4 l-30 -15 7 -79 c8 -96 -9 -108 -19 -14 -6 55 -10 65 -26 65 -11 0 -19 -7 -20 -17 0 -15 -2 -15 -9 2 -8 18 -9 18 -9 2 -1 -10 -5 -15 -11 -12 -5 3 -10 0 -10 -8 0 -8 -18 -45 -40 -81 -43 -70 -49 -96 -25 -96 16 0 534 -47 595 -54 19 -2 151 -14 292 -27 198 -17 263 -20 280 -11 13 6 52 28 88 48 36 19 94 52 129 72 38 21 62 30 59 21 -2 -8 -69 -52 -148 -98 l-144 -84 -276 27 c-151 15 -394 38 -540 52 -146 13 -287 27 -313 30 -43 6 -48 4 -47 -12 5 -47 0 -64 -20 -64 -11 0 -20 -6 -20 -12 0 -7 -5 -42 -10 -78 -5 -39 -5 -68 0 -75 6 -7 6 -15 -1 -22 -15 -15 0 -40 28 -46 14 -3 78 -1 142 5 64 5 124 7 134 4 9 -2 17 0 17 6 0 5 12 7 30 3 19 -4 30 -3 30 4 0 6 9 11 19 11 11 0 23 5 26 10 3 6 15 10 27 10 19 0 20 4 13 55 l-6 55 41 0 c26 0 39 4 35 11 -5 7 9 9 41 7 37 -2 50 -7 52 -21 2 -10 -3 -17 -12 -17 -19 0 -20 -19 -4 -55 8 -18 18 -25 32 -23 12 1 37 -7 56 -19 68 -41 111 -63 124 -63 18 0 75 28 113 56 17 13 43 24 57 24 18 0 27 7 31 23 6 23 8 23 83 14 116 -13 153 -6 237 47 l75 46 0 -75 c0 -41 -1 -75 -3 -75 -2 0 -68 9 -147 20 -154 21 -240 25 -240 11 0 -5 11 -16 25 -25 15 -10 25 -26 25 -39 0 -13 11 -46 25 -73 21 -43 34 -55 87 -81 l62 -31 51 19 c54 21 99 65 117 116 11 30 16 33 53 33 23 0 46 -5 53 -12 9 -9 12 -6 12 17 l0 29 16 -22 c16 -24 61 -28 57 -5 -1 6 6 18 17 28 18 16 18 18 -17 66 -26 37 -31 49 -19 49 12 0 16 10 16 45 0 44 -16 63 -22 26 -2 -15 -8 -17 -25 -10 -20 7 -23 15 -22 56 1 26 3 40 6 31 2 -10 9 -18 14 -18 12 0 12 86 0 109 -18 32 0 38 72 23 l68 -15 -3 -51 -3 -51 -37 -3 -38 -3 0 -72 c0 -40 4 -78 9 -85 9 -15 56 -13 57 3 0 6 4 18 9 28 4 10 5 21 1 24 -3 4 -6 -1 -6 -10 0 -9 -5 -17 -10 -17 -7 0 -10 22 -8 54 3 55 17 68 19 18 l1 -27 8 25 c4 14 8 19 9 12 2 -23 20 -3 41 45 57 129 70 277 30 356 -13 26 -27 47 -32 47 -4 0 -8 7 -8 15 0 8 -7 15 -15 15 -16 0 -20 -12 -8 -24 9 -9 10 -96 1 -96 -3 0 -9 8 -11 18 -4 16 -5 16 -6 0 0 -10 -5 -18 -11 -18 -5 0 -10 25 -10 56 0 34 4 53 10 49 6 -3 10 -1 10 4 0 6 -16 11 -35 11 -33 0 -35 -2 -35 -36 0 -31 -18 -64 -34 -64 -2 0 -7 10 -9 23 l-4 22 -2 -22 c0 -13 -5 -23 -11 -23 -6 0 -10 40 -10 101 0 90 -2 100 -17 97 -10 -2 -23 3 -30 12 -6 8 -14 13 -17 9 -3 -3 -8 -93 -12 -199 -7 -185 -11 -209 -38 -210 -5 0 -7 93 -4 209 l4 209 -29 6 c-53 11 -52 12 -52 -102 0 -132 -8 -172 -42 -206 -33 -34 -53 -33 -88 4 -29 31 -30 32 -33 170 l-4 140 -39 0 -39 0 0 -260z m528 -39 c9 -5 25 -12 35 -15 9 -3 17 -15 17 -26 0 -24 4 -24 -75 -4 -51 13 -65 20 -65 35 0 15 7 19 35 19 19 0 43 -4 53 -9z"
      ></path>
    </g>
  </g>
  <g
    id="l6wEj4nkqHhugpiYMnk1kZv"
    fill="rgb(192,192,192)"
    style="transform: none"
  >
    <g style="transform: none">
      <path
        id="pdwrwGVQ9"
        d="M1783 2573 l-33 -4 0 -257 c0 -141 -4 -263 -8 -270 -6 -9 -27 -11 -83 -5 -41 4 -65 9 -54 11 19 3 20 9 17 245 -2 133 -5 244 -7 245 -2 2 -13 1 -25 -3 -21 -7 -21 -8 -14 -235 4 -126 4 -234 2 -242 -5 -11 -41 -11 -224 5 -121 11 -221 21 -223 23 -2 2 -10 106 -17 232 -7 125 -13 229 -13 231 -1 3 -11 -5 -24 -17 -24 -23 -24 7 -1 -334 l7 -108 -62 0 c-34 0 -61 4 -61 10 0 6 5 10 10 10 12 0 13 50 4 139 -8 68 -22 75 -38 20 l-10 -34 -4 28 c-5 42 -38 32 -35 -11 1 -29 -3 -34 -28 -39 -28 -5 -29 -8 -29 -60 l0 -55 -30 4 c-36 5 -52 -9 -18 -16 13 -3 57 -7 98 -10 64 -5 519 -45 678 -61 28 -3 76 -7 105 -10 28 -3 97 -9 152 -15 55 -5 101 -14 103 -20 2 -5 8 -10 13 -10 4 0 6 6 4 13 -3 7 15 23 43 38 253 137 245 134 240 105 -3 -14 -2 -26 2 -26 16 0 20 -34 6 -49 -9 -10 -13 -26 -9 -39 6 -26 23 -19 24 11 1 17 2 18 6 5 5 -21 29 -24 36 -5 3 6 6 -10 6 -38 1 -59 -8 -78 -29 -65 -8 5 -15 14 -15 20 0 16 -20 12 -23 -5 -8 -38 84 -185 107 -171 14 9 64 106 54 106 -4 0 -2 5 5 12 7 7 12 32 12 58 0 28 3 40 9 32 12 -19 21 34 21 118 l0 67 -78 17 c-43 9 -88 19 -100 23 -16 4 -22 1 -22 -10 0 -9 -5 -19 -12 -23 -8 -5 -9 44 -4 195 8 224 12 213 -62 215 l-37 1 -3 -195 c-1 -107 -4 -200 -7 -207 -7 -20 -253 -145 -277 -140 l-23 4 23 2 22 1 1 233 c1 127 2 250 3 272 1 44 -4 47 -71 38z m35 -223 c2 -121 -1 -165 -10 -171 -7 -4 -16 -5 -20 -3 -10 6 -11 328 -1 338 22 22 28 -11 31 -164z m-961 -222 c-2 -13 -4 -5 -4 17 -1 22 1 32 4 23 2 -10 2 -28 0 -40z m1531 -203 c-2 -27 -8 -50 -14 -52 -7 -3 -9 10 -4 41 3 24 5 52 4 61 -2 12 1 14 7 8 6 -6 9 -32 7 -58z m-31 -12 c-2 -16 -4 -5 -4 22 0 28 2 40 4 28 2 -13 2 -35 0 -50z"
      ></path>
      <path
        id="p9YUaeL47"
        d="M1734 2435 c0 -71 1 -99 3 -62 2 37 2 96 0 130 -2 34 -3 4 -3 -68z"
      ></path>
      <path
        id="pXIfJrTc3"
        d="M2230 2381 l0 -159 95 -23 c52 -13 96 -21 98 -18 3 2 7 28 9 57 5 51 4 52 -24 60 -15 4 -28 10 -28 15 0 4 0 33 0 64 0 70 17 60 22 -12 2 -36 7 -50 18 -50 11 0 16 14 18 58 4 68 -2 75 -109 132 -104 55 -99 60 -99 -124z m50 -6 c0 -33 4 -45 18 -48 9 -3 3 -5 -14 -6 -20 -1 -34 5 -38 14 -3 8 -1 15 4 15 6 0 10 18 10 41 0 24 4 38 10 34 6 -3 10 -26 10 -50z m145 -10 c0 -25 -3 -45 -7 -45 -5 0 -8 23 -8 52 0 28 3 48 7 44 4 -4 7 -27 8 -51z m-115 10 c0 -19 -4 -35 -10 -35 -11 0 -14 53 -3 63 11 12 13 8 13 -28z m57 -27 c-2 -13 -4 -3 -4 22 0 25 2 35 4 23 2 -13 2 -33 0 -45z"
      ></path>
      <path
        id="pdobADQxI"
        d="M1642 2360 c0 -19 2 -27 5 -17 2 9 2 25 0 35 -3 9 -5 1 -5 -18z"
      ></path>
      <path
        id="pkrjixjIr"
        d="M780 2000 c19 -13 30 -13 30 0 0 6 -10 10 -22 10 -19 0 -20 -2 -8 -10z"
      ></path>
      <path
        id="p1GzpwfXKu"
        d="M880 1990 c20 -13 50 -13 50 0 0 6 -15 10 -32 10 -25 0 -29 -3 -18 -10z"
      ></path>
      <path
        id="pXhChJwSE"
        d="M2056 1930 c-113 -73 -129 -80 -120 -56 3 8 1 23 -5 33 -9 15 -10 12 -11 -19 0 -21 -3 -38 -7 -38 -5 0 -89 9 -187 20 -99 11 -193 20 -209 20 -57 0 -21 -9 79 -21 54 -6 101 -12 103 -15 2 -2 -4 -15 -13 -28 -19 -30 -16 -32 54 -40 130 -16 357 -46 383 -51 l27 -4 0 122 c0 82 4 127 12 135 22 22 4 12 -106 -58z"
      ></path>
      <path
        id="pIa0hBRYC"
        d="M990 1980 c0 -5 9 -10 20 -10 11 0 20 5 20 10 0 6 -9 10 -20 10 -11 0 -20 -4 -20 -10z"
      ></path>
      <path
        id="p4mIIcReL"
        d="M1073 1973 c4 -6 46 -13 94 -17 48 -4 100 -10 115 -13 16 -3 28 -1 28 4 0 6 -33 13 -72 17 -40 4 -95 10 -122 13 -32 4 -47 2 -43 -4z"
      ></path>
      <path
        id="pTzPZVUWA"
        d="M786 1946 c5 -13 -58 -76 -76 -76 -6 0 -10 -4 -10 -10 0 -5 23 -10 50 -10 l50 0 0 55 c0 30 -4 55 -10 55 -5 0 -7 -6 -4 -14z"
      ></path>
      <path
        id="pikTsw1P3"
        d="M833 1946 c11 -8 17 -27 17 -50 l0 -36 83 5 c123 9 127 11 127 45 0 26 -4 30 -27 30 -16 0 -59 3 -97 7 -74 7 -82 -3 -25 -32 26 -14 32 -14 59 0 39 20 47 19 25 -5 -35 -38 -118 -18 -138 33 -3 9 -14 17 -24 17 -17 -1 -17 -1 0 -14z"
      ></path>
      <path
        id="p61dxnRuE"
        d="M706 1918 c-8 -40 -5 -43 27 -17 34 26 35 49 3 49 -18 0 -25 -7 -30 -32z"
      ></path>
      <path
        id="pHAmIuOqB"
        d="M1370 1941 c0 -8 109 -21 119 -14 9 6 -6 10 -61 17 -33 3 -58 2 -58 -3z"
      ></path>
      <path
        id="pT2l7MKJX"
        d="M1987 1931 c-41 -26 -46 -36 -10 -17 17 9 35 20 38 26 8 13 6 12 -28 -9z"
      ></path>
      <path
        id="pehiGHNc0"
        d="M1108 1923 c19 -4 22 -11 22 -51 0 -97 -2 -95 119 -87 58 4 108 9 110 11 3 2 -3 20 -12 39 -11 23 -24 35 -37 35 -12 0 -35 8 -53 17 l-32 17 30 7 c28 6 27 7 -11 8 -23 0 -68 3 -100 5 -32 2 -49 2 -36 -1z"
      ></path>
      <path
        id="p12K42ajNo"
        d="M1545 1919 c22 -4 58 -8 80 -7 38 0 39 1 10 8 -16 4 -52 8 -80 8 l-50 0 40 -9z"
      ></path>
      <path
        id="pneVzGRJq"
        d="M1340 1902 c0 -9 120 -23 129 -16 9 8 -6 12 -66 18 -37 4 -63 3 -63 -2z"
      ></path>
      <path
        id="pbclo9J9F"
        d="M1745 1900 c28 -12 67 -12 60 0 -3 6 -23 10 -43 9 -30 0 -33 -2 -17 -9z"
      ></path>
      <path
        id="p1CPcx5zTZ"
        d="M1821 1896 c12 -10 59 -15 59 -6 0 5 -14 10 -32 10 -17 0 -29 -2 -27 -4z"
      ></path>
      <path
        id="p1G1wpotar"
        d="M2208 1801 c-3 -74 -1 -81 19 -92 13 -7 19 -17 16 -26 -9 -23 38 -6 59 21 16 20 16 22 -2 41 -10 11 -34 46 -54 78 l-34 58 -4 -80z"
      ></path>
      <path
        id="p15Eej1xd6"
        d="M943 1850 c-76 -7 -111 -20 -52 -20 67 0 169 13 169 21 0 10 -7 10 -117 -1z"
      ></path>
      <path
        id="p14AVUknYt"
        d="M735 1831 c-27 -3 -45 -9 -40 -13 14 -9 105 3 105 13 0 5 -3 8 -7 7 -5 0 -30 -4 -58 -7z"
      ></path>
      <path
        id="p194dMd7Fn"
        d="M866 1791 c-125 -12 -171 -20 -174 -30 -3 -8 0 -11 7 -7 7 4 9 1 5 -8 -5 -13 4 -15 63 -10 37 3 101 10 141 15 40 5 91 9 113 9 36 0 40 3 37 22 -2 12 -7 22 -13 23 -5 1 -86 -5 -179 -14z"
      ></path>
    </g>
  </g>
</svg>
